<?xml version="1.0" encoding="UTF-8"?>
<svg id="Camada_1" data-name="Camada 1" xmlns="http://www.w3.org/2000/svg" viewBox="0 0 2080 500">
  <g>
    <path d="M215.85,256.9c0-73.61,55.21-135.82,130.95-155.9H100c15.15,0,27.43,11.15,27.43,24.92v249.17c0,13.76-12.28,24.92-27.43,24.92h212.09c-57.31-27.54-96.23-81.3-96.23-143.1Z"/>
    <path d="M375.17,100c-9.72,0-19.19,1.01-28.28,2.92-55.33,11.63-96.56,56.67-96.56,110.47s41.24,98.83,96.56,110.46c9.09,1.91,18.56,2.92,28.28,2.92,68.94,0,124.83-50.76,124.83-113.38s-55.89-113.39-124.83-113.39Z"/>
    <ellipse cx="429.1" cy="375.08" rx="27.43" ry="24.92"/>
  </g>
  <g>
    <path d="M652.1,269.29c-1.09-.18-2.18-.32-3.28-.41-1.09-.09-2.18-.14-3.28-.14-8.19,0-15.84,2.13-22.94,6.39-5.35,3.21-9.35,7.21-12.02,12.01v-16.77h-30.59v1.9c2.55,1.45,4.6,3.67,6.14,6.66,1.55,2.99,2.32,7.47,2.32,13.45v82.07c0,6.16-.59,10.56-1.77,13.18-1.19,2.63-2.96,4.76-5.33,6.39v1.63h37.14v-1.63c-2.37-1.63-4.14-3.8-5.33-6.52-1.19-2.72-1.78-7.07-1.78-13.04v-63.32c2.18-5.61,5.83-10.14,10.93-13.59,5.1-3.44,10.11-5.16,15.02-5.16,2.73,0,5.19.5,7.37,1.49,2.18,1,4.19,2.49,6.01,4.48h1.36v-29.08Z"/>
    <path d="M753.7,275c-10.2-5.8-21.85-8.7-34.96-8.7s-24.72,2.9-34.82,8.7c-10.11,5.8-18.07,13.68-23.9,23.64-5.83,9.96-8.74,21.38-8.74,34.24s2.91,24.32,8.74,34.38c5.82,10.05,13.79,17.93,23.9,23.64,10.11,5.71,21.71,8.56,34.82,8.56s24.76-2.85,34.96-8.56c10.2-5.71,18.21-13.59,24.03-23.64,5.83-10.05,8.74-21.51,8.74-34.38s-2.92-24.27-8.74-34.24c-5.83-9.96-13.84-17.84-24.03-23.64ZM757.25,356.25c-3.82,6.7-9.06,11.96-15.7,15.76-6.65,3.8-14.25,5.71-22.81,5.71s-16.16-1.9-22.81-5.71c-6.65-3.8-11.88-9.06-15.7-15.76-3.82-6.7-5.74-14.49-5.74-23.37s1.91-16.44,5.74-23.23c3.82-6.79,9.06-12.05,15.7-15.76,6.64-3.71,14.25-5.57,22.81-5.57s16.16,1.86,22.81,5.57c6.64,3.72,11.88,8.97,15.7,15.76,3.82,6.79,5.74,14.54,5.74,23.23s-1.91,16.67-5.74,23.37Z"/>
    <path d="M882.21,275.41c-10.11-5.16-21.99-7.74-35.64-7.74-5.28,0-10.61.59-15.98,1.77-2.51.55-5.02,1.27-7.51,2.12v-71.54h-31.41v2.17c2.55,1.27,4.6,3.44,6.14,6.52,1.55,3.08,2.32,7.61,2.32,13.59v153.53c0,3.99-.78,7.29-2.32,9.92-1.55,2.63-3.51,4.48-5.87,5.57v1.9c7.28,1.81,14.43,3.12,21.44,3.94,7.01.81,14.07,1.22,21.17,1.22,16.02,0,29.95-2.76,41.79-8.29,11.83-5.52,21.03-13.31,27.59-23.37,6.55-10.06,9.83-21.78,9.83-35.19s-2.73-24.36-8.19-33.97c-5.46-9.6-13.25-16.98-23.35-22.15ZM883.71,355.44c-4.37,6.89-10.56,12.27-18.57,16.17-8.01,3.9-17.3,5.84-27.86,5.84-3.82,0-7.15-.27-9.97-.81-1.23-.24-2.65-.56-4.23-.97v-82.86c2.97-1.07,5.81-1.95,8.47-2.58,4.55-1.09,9.19-1.63,13.93-1.63,13.84,0,24.76,3.9,32.77,11.68,8.01,7.79,12.02,18.21,12.02,31.25,0,9.06-2.18,17.03-6.55,23.91Z"/>
    <path d="M972.75,325.54l-13.38-7.61c-5.1-2.9-8.74-5.52-10.93-7.88-2.18-2.35-3.28-5.16-3.28-8.42,0-4.17,2.14-7.52,6.42-10.05,4.28-2.54,9.97-3.8,17.07-3.8,2.36,0,4.64.14,6.83.41,2.18.27,4.19.77,6.01,1.49,1.82.73,3.59,1.54,5.33,2.44,1.73.91,3.41,2.17,5.05,3.8h1.37v-27.72c-1.09.18-2.23.36-3.41.54-1.19.18-2.5.27-3.96.27s-3.82-.18-7.1-.54c-3.28-.36-6.92-.54-10.93-.54-9.11,0-17.21,1.41-24.31,4.21-7.1,2.81-12.61,6.75-16.52,11.82-3.92,5.07-5.87,10.87-5.87,17.39s1.95,12.5,5.87,17.93c3.91,5.44,9.6,10.33,17.07,14.67l13.66,7.61c6.55,3.44,11.2,6.7,13.93,9.78,2.73,3.08,4.1,6.52,4.1,10.33,0,4.89-2.32,8.83-6.96,11.82-4.64,2.99-10.88,4.48-18.71,4.48-5.65,0-10.56-.82-14.75-2.45-2.37-.9-4.33-1.9-5.87-2.99-1.55-1.09-3.05-2.44-4.51-4.08h-1.64v26.9c3.28.72,7.33,1.36,12.15,1.9,4.82.54,9.7.81,14.61.81,15.47,0,27.58-3.21,36.33-9.65,8.74-6.43,13.11-15.26,13.11-26.49,0-7.43-2.14-14.04-6.42-19.84-4.28-5.8-11.06-11.32-20.35-16.58Z"/>
    <path d="M1108.76,275c-10.2-5.8-21.85-8.7-34.96-8.7s-24.72,2.9-34.82,8.7c-10.11,5.8-18.07,13.68-23.9,23.64-5.83,9.96-8.74,21.38-8.74,34.24s2.91,24.32,8.74,34.38c5.82,10.05,13.79,17.93,23.9,23.64,10.11,5.71,21.71,8.56,34.82,8.56s24.76-2.85,34.96-8.56c10.2-5.71,18.21-13.59,24.03-23.64,5.83-10.05,8.74-21.51,8.74-34.38s-2.92-24.27-8.74-34.24c-5.83-9.96-13.84-17.84-24.03-23.64ZM1112.31,356.25c-3.82,6.7-9.06,11.96-15.7,15.76-6.65,3.8-14.25,5.71-22.81,5.71s-16.16-1.9-22.81-5.71c-6.65-3.8-11.88-9.06-15.7-15.76-3.82-6.7-5.74-14.49-5.74-23.37s1.91-16.44,5.74-23.23c3.82-6.79,9.06-12.05,15.7-15.76,6.64-3.71,14.25-5.57,22.81-5.57s16.16,1.86,22.81,5.57c6.64,3.72,11.88,8.97,15.7,15.76,3.82,6.79,5.74,14.54,5.74,23.23s-1.91,16.67-5.74,23.37Z"/>
    <path d="M1254.19,387.64c-1.19-2.62-1.77-7.02-1.77-13.18v-65.22c0-13.22-3.55-23.68-10.65-31.39-7.1-7.7-16.93-11.55-29.5-11.55-8.56,0-16.39,2.17-23.49,6.52-4.93,3.02-8.83,6.67-11.74,10.91v-13.36h-30.32v1.9c2.55,1.45,4.6,3.67,6.14,6.66,1.55,2.99,2.32,7.47,2.32,13.45v82.07c0,6.16-.59,10.56-1.77,13.18-1.19,2.63-2.96,4.76-5.33,6.39v1.63h36.87v-1.63c-2.37-1.63-4.1-3.76-5.19-6.39-1.09-2.62-1.64-7.02-1.64-13.18v-71.47c2.55-4.71,6.32-8.42,11.33-11.14,5.01-2.72,10.33-4.08,15.98-4.08,7.65,0,13.56,2.31,17.75,6.93,4.19,4.62,6.28,11.1,6.28,19.43v60.33c0,6.16-.55,10.56-1.64,13.18-1.09,2.63-2.83,4.76-5.19,6.39v1.63h36.87v-1.63c-2.37-1.63-4.14-3.76-5.33-6.39Z"/>
    <path d="M1358.93,325.54l-13.38-7.61c-5.1-2.9-8.74-5.52-10.93-7.88-2.18-2.35-3.28-5.16-3.28-8.42,0-4.17,2.14-7.52,6.42-10.05,4.28-2.54,9.97-3.8,17.07-3.8,2.36,0,4.64.14,6.83.41s4.19.77,6.01,1.49c1.82.73,3.59,1.54,5.33,2.44,1.73.91,3.41,2.17,5.05,3.8h1.37v-27.72c-1.09.18-2.23.36-3.41.54-1.19.18-2.5.27-3.96.27s-3.82-.18-7.1-.54c-3.28-.36-6.92-.54-10.93-.54-9.11,0-17.21,1.41-24.31,4.21-7.1,2.81-12.61,6.75-16.52,11.82-3.92,5.07-5.87,10.87-5.87,17.39s1.95,12.5,5.87,17.93c3.91,5.44,9.6,10.33,17.07,14.67l13.66,7.61c6.55,3.44,11.2,6.7,13.93,9.78,2.73,3.08,4.1,6.52,4.1,10.33,0,4.89-2.32,8.83-6.96,11.82-4.64,2.99-10.88,4.48-18.71,4.48-5.65,0-10.56-.82-14.75-2.45-2.37-.9-4.33-1.9-5.87-2.99-1.55-1.09-3.05-2.44-4.51-4.08h-1.64v26.9c3.28.72,7.33,1.36,12.15,1.9,4.82.54,9.7.81,14.61.81,15.47,0,27.58-3.21,36.33-9.65,8.74-6.43,13.11-15.26,13.11-26.49,0-7.43-2.14-14.04-6.42-19.84-4.28-5.8-11.06-11.32-20.35-16.58Z"/>
    <path d="M1535.09,239.4c4.73,0,8.6-1.49,11.61-4.48s4.51-6.75,4.51-11.28-1.5-8.51-4.51-11.41c-3-2.9-6.87-4.35-11.61-4.35s-8.38,1.45-11.47,4.35c-3.1,2.9-4.64,6.7-4.64,11.41s1.55,8.29,4.64,11.28c3.09,2.99,6.92,4.48,11.47,4.48Z"/>
    <path d="M1549.29,387.64c-1.09-2.62-1.64-7.02-1.64-13.18v-104.08h-64.73v1.63c2.36,1.63,4.05,3.76,5.05,6.39,1,2.63.41,6.11-1.77,10.46l-33.91,68.75-33.55-68.48c-2-4.35-2.73-7.88-2.18-10.6.55-2.72,2.18-4.89,4.92-6.52v-1.63h-41.24v1.63c2.01.91,3.87,2.4,5.6,4.48,1.73,2.09,3.69,5.21,5.87,9.38l58.99,114.13h1.91l58.99-113.86c2.18-4.35,4.14-7.56,5.87-9.65.59-.71,1.18-1.32,1.78-1.89,1.2,1.2,2.25,2.64,3.13,4.34,1.55,2.99,2.32,7.47,2.32,13.45v82.07c0,6.16-.59,10.56-1.77,13.18-1.19,2.63-2.96,4.76-5.33,6.39v1.63h36.87v-1.63c-2.37-1.63-4.1-3.76-5.19-6.39Z"/>
    <path d="M1644.88,370.52c-1.09.81-2.55,1.68-4.37,2.58-1.64.73-3.6,1.27-5.87,1.63-2.28.37-4.51.54-6.69.54-8.56,0-16.02-1.77-22.4-5.3-6.37-3.53-11.38-8.56-15.02-15.08-3.65-6.52-5.46-14.13-5.46-22.83,0-8.15,1.87-15.35,5.6-21.6,3.73-6.25,8.69-11.14,14.88-14.67,6.19-3.53,13.2-5.3,21.03-5.3,2.18,0,4.32.18,6.42.54,2.09.37,3.96.91,5.6,1.63,1.64.73,3.14,1.49,4.51,2.31,1.37.81,2.6,1.86,3.69,3.12h1.64v-29.62c-1.28.18-2.37.37-3.28.54-.91.18-2.01.27-3.28.27-1.64,0-3.51-.09-5.6-.27-2.09-.18-4.69-.27-7.78-.27-13.11,0-24.72,2.63-34.82,7.88-10.11,5.26-18.03,12.64-23.76,22.15-5.74,9.51-8.6,20.61-8.6,33.29s2.82,24.69,8.47,34.38c5.64,9.69,13.61,17.26,23.9,22.69,10.28,5.43,22.35,8.15,36.19,8.15,3.64,0,7.24-.18,10.79-.54,3.55-.36,6.32-.81,8.33-1.36v-27.45h-1.64c-.55.91-1.37,1.77-2.46,2.58Z"/>
    <path d="M1743.75,273.51c-8.38-4.8-17.85-7.2-28.4-7.2-12.02,0-22.67,2.76-31.96,8.29-9.29,5.53-16.57,13.09-21.85,22.69-5.28,9.6-7.92,20.75-7.92,33.42,0,13.95,3.05,26.09,9.15,36.41,6.1,10.33,14.79,18.25,26.08,23.78,11.29,5.52,24.58,8.29,39.88,8.29,5.64,0,11.51-.5,17.62-1.49,6.1-1,10.6-2.13,13.52-3.4v-26.63h-1.37c-2.92,3.8-7.19,6.61-12.84,8.42-2.18.73-4.92,1.41-8.19,2.04-3.28.64-6.83.95-10.65.95-9.29,0-17.57-1.54-24.85-4.62-7.28-3.08-13.11-7.47-17.48-13.18-3.79-4.94-6.2-10.67-7.25-17.18l92.74-13.39c.36-.9.55-2.31.55-4.21v-5.57c0-10.5-2.37-19.84-7.1-27.99-4.74-8.15-11.29-14.63-19.67-19.43ZM1686.8,298.37c7.01-7.79,16.52-11.69,28.54-11.69,10.01,0,17.98,3.04,23.9,9.1,4.97,5.1,7.78,11.64,8.45,19.62l-71.5,10.45c.8-11.34,4.33-20.51,10.61-27.49Z"/>
    <path d="M1845.62,269.29c-1.09-.18-2.18-.32-3.28-.41-1.09-.09-2.18-.14-3.28-.14-8.19,0-15.84,2.13-22.94,6.39-5.35,3.21-9.35,7.21-12.02,12.01v-16.77h-30.59v1.9c2.55,1.45,4.6,3.67,6.14,6.66,1.55,2.99,2.32,7.47,2.32,13.45v82.07c0,6.16-.59,10.56-1.77,13.18-1.19,2.63-2.96,4.76-5.33,6.39v1.63h37.14v-1.63c-2.37-1.63-4.14-3.8-5.33-6.52-1.19-2.72-1.78-7.07-1.78-13.04v-63.32c2.18-5.61,5.83-10.14,10.93-13.59,5.1-3.44,10.11-5.16,15.02-5.16,2.73,0,5.19.5,7.37,1.49,2.18,1,4.19,2.49,6.01,4.48h1.36v-29.08Z"/>
    <path d="M1971.26,298.64c-5.83-9.96-13.84-17.84-24.03-23.64-10.2-5.8-21.85-8.7-34.96-8.7s-24.72,2.9-34.82,8.7c-10.11,5.8-18.07,13.68-23.9,23.64-5.83,9.96-8.74,21.38-8.74,34.24s2.91,24.32,8.74,34.38c5.82,10.05,13.79,17.93,23.9,23.64,10.11,5.71,21.71,8.56,34.82,8.56s24.76-2.85,34.96-8.56c10.2-5.71,18.21-13.59,24.03-23.64,5.83-10.05,8.74-21.51,8.74-34.38s-2.92-24.27-8.74-34.24ZM1950.78,356.25c-3.82,6.7-9.06,11.96-15.7,15.76-6.65,3.8-14.25,5.71-22.81,5.71s-16.16-1.9-22.81-5.71c-6.65-3.8-11.88-9.06-15.7-15.76-3.82-6.7-5.74-14.49-5.74-23.37s1.91-16.44,5.74-23.23c3.82-6.79,9.06-12.05,15.7-15.76,6.64-3.71,14.25-5.57,22.81-5.57s16.16,1.86,22.81,5.57c6.64,3.72,11.88,8.97,15.7,15.76,3.82,6.79,5.74,14.54,5.74,23.23s-1.91,16.67-5.74,23.37Z"/>
  </g>
</svg>